<?xml version="1.0" encoding="UTF-8" standalone="no"?>

<svg
   width="100%"
   height="100%"
   viewBox="0 0 935.36188 138.61783"
   version="1.1"
   id="svg5"
   xmlns="http://www.w3.org/2000/svg"
   xmlns:xlink="http://www.w3.org/1999/xlink"
   xml:space="preserve">
  <defs
     id="defs2" />
  <g
     id="layer1"
     transform="translate(-23.247267,-6.1643718)">
    <path
       d="m 121.94533,9.6057413 c 2.89075,-0.275226 4.68026,-2.8907105 7.43334,-3.4413695 0.13772,10.5994202 -1.51421,21.1988222 -1.37654,31.7981952 l -3.0284,-0.13795 c -0.13772,-3.99196 -0.96358,-7.846268 -2.61544,-11.425305 -1.92716,-3.716681 -6.19445,-5.368545 -10.18643,-5.781488 -4.26728,-0.550584 -8.53458,-1.101243 -12.801859,-1.376516 -9.360494,-0.13795 -18.721003,-0.413102 -28.081503,0 -0.688262,17.344459 -1.101224,34.688909 -1.101224,52.033369 7.708645,0.13725 15.279638,0 22.988283,-0.41311 5.506164,-0.2752 11.287653,0.68829 16.656183,-1.10124 5.64383,-2.47777 6.19445,-9.36047 7.57099,-14.45369 l 2.34012,0.4131 c 0.41295,5.5062 0,11.01236 0,16.38091 0.27534,8.12161 -0.27531,16.38087 0.13772,24.50248 l -2.75308,-0.13795 c -0.96359,-5.50615 -2.89076,-10.73705 -5.50618,-15.6926 -13.765439,-0.41309 -27.530895,0 -41.433989,-0.13795 -0.27532,7.57099 0,15.14198 0.137716,22.850673 -0.275348,4.54256 0.550612,9.08518 0.550612,13.62775 0.412943,4.54261 0.27532,9.36053 2.89073,13.35248 1.927175,3.30372 5.643838,4.95556 9.222858,5.50617 12.113585,1.78952 24.640143,0.55066 36.065443,-3.71663 0.41299,0.82593 0.82594,1.65183 1.37655,2.47777 -0.41292,-0.96359 -0.68826,-1.78951 -1.10123,-2.75311 3.57902,-1.92719 7.29568,-3.8543 10.04877,-6.88274 2.89075,-3.71665 5.36852,-7.7086 7.15803,-12.11357 l 2.34012,0.82593 c -1.23888,4.81789 -3.02838,9.49818 -4.5426,14.17841 -1.7895,5.50615 -3.57901,11.01237 -5.50617,16.51855 -4.95555,-0.13795 -10.04876,0.27521 -15.00432,0.13794 -5.91916,0.13795 -11.97594,-0.41308 -17.895068,0.13795 h -0.27534 c -9.911124,-0.4131 -19.822236,-0.27523 -29.733356,-0.4131 1.101252,-4.40495 -0.550613,-8.80985 0.275338,-13.21482 0.27532,-2.34011 1.101225,-4.68024 0.137717,-7.02036 -0.137717,3.99198 -1.514186,7.70862 -1.651837,11.7006 -0.412942,2.89076 -0.963601,5.64386 -1.789506,8.39692 -4.817914,0.82594 -9.77347,-0.27522 -14.729025,0.55066 H 27.78988 c -1.514213,-0.13794 -3.028399,-0.27522 -4.542613,-0.4131 v -3.02838 c 5.919158,-0.4131 11.975937,-0.82593 17.482115,-3.3037 4.267292,-1.92717 6.194449,-6.74508 7.020381,-11.01238 0.825932,-6.05681 1.238894,-12.25124 1.238894,-18.44572 0.963583,-17.619723 0.550612,-35.377173 0.550612,-52.996913 3.854331,0.68826 7.708644,2.47779 9.360509,6.19443 -0.275349,-1.65186 -0.688282,-3.3037 -1.514214,-4.95555 -1.927157,-3.3037 -5.643819,-5.23091 -7.846295,-8.39693 -0.550612,-4.95556 0,-9.91112 -0.688282,-14.72903 0.137716,-4.680217 -0.550612,-9.3605 -2.202476,-13.765425 l -1.514186,-1.101243 1.514186,-1.651836 -1.651837,1.101243 C 39.628157,14.836196 33.158388,13.734953 26.826279,13.184341 v -3.165685 c 27.255584,0.275226 54.373499,0.13795 81.629071,0.13795 4.40495,0.137258 8.94754,-0.13795 13.49014,-0.5506587 m 769.21288,1.7895057 c 10.04878,-1.238847 20.23522,-0.963574 30.14633,0.688281 6.19443,0.688263 12.11357,2.615438 18.30805,3.44137 1.92713,0.275208 3.30372,-1.376544 4.26729,-2.89073 l 2.20245,-0.13795 c -0.82592,8.259257 -1.51419,16.380862 -1.92718,24.640113 -0.55058,4.12964 -0.68826,8.25929 -0.55058,12.38891 -1.10125,-0.13795 -2.06485,-0.13795 -3.02838,-0.27523 0,-4.12962 -1.37659,-8.1216 -2.20252,-12.11356 -1.10121,-5.368539 -4.4049,-9.911113 -9.08519,-12.80189 -7.43333,-5.230829 -16.79381,-6.469751 -25.74139,-6.332081 -13.07714,0.413083 -26.42965,6.056808 -34.27592,16.793851 -6.74506,8.94752 -10.46171,19.68456 -10.87471,30.83456 -1.37653,0.4131 -2.3401,-0.68827 -3.16604,-1.65187 -0.68825,0.4131 -1.23891,0.9636 -1.78952,1.37659 1.51419,1.23887 4.54263,2.61544 3.44136,5.09323 -0.8259,1.37651 0.41311,2.20245 1.37654,2.75304 -0.55061,0.9636 -1.10119,1.92717 -1.78953,2.75311 l 1.51426,1.37651 c 1.23886,12.38891 4.95557,24.777833 12.52651,34.826593 3.44137,4.68025 7.70867,8.67227 12.66423,11.97597 v 1.37654 l 1.37652,-0.55061 c 6.88273,3.71664 14.5914,6.05676 22.43767,6.60742 6.88273,1.10119 13.90309,-0.27523 20.64816,-1.78954 -0.13795,-5.23087 0,-10.59937 0.4131,-15.83025 -0.13795,-6.19447 0.27523,-12.3889 0,-18.445723 0,-3.57899 -2.06484,-6.74506 -5.23087,-8.25926 -4.68025,-1.92713 -9.77347,-3.30372 -14.8667,-3.8543 v -2.89079 c 6.19448,0 12.25123,-0.13794 18.44571,0 0.27523,1.10125 -0.82592,2.06486 -1.10124,3.02843 1.23891,-0.96357 2.34012,-1.92718 3.44137,-3.02843 h 29.87101 c 0,0.9636 0,1.92719 -0.13795,2.89079 -3.99195,0.27522 -8.67224,1.10124 -11.28763,4.54256 -1.78951,2.34017 -1.65186,5.36855 -1.78951,8.12166 0,10.186393 0,20.372833 0.27521,30.559283 2.20251,1.23886 4.95558,1.23886 7.43334,1.65185 0,0.82592 0.13795,1.65185 0.13795,2.47779 -8.39693,1.92712 -16.93148,3.71664 -25.3284,5.78148 -6.46975,0.82594 -12.9395,2.75305 -19.54691,2.6154 -10.18644,0.96357 -20.51055,-0.41311 -30.00868,-3.85432 -0.27522,0.68827 -0.55061,1.37653 -0.82592,2.06486 -0.68826,0.13795 -1.51419,0.41308 -2.20246,0.55058 -0.82592,-2.20245 -0.4131,-4.54261 -0.68833,-6.88273 1.23893,-0.55059 0.96361,-2.06478 1.65187,-2.89071 -0.96354,0 -1.78946,0 -2.75306,-0.13795 0.55061,0.55061 1.65185,0.82593 1.23886,1.92717 l -2.06479,0.41311 c 0.55061,-2.34012 -0.55064,-4.40497 -0.96358,-6.60742 -2.20246,1.92718 -3.3037,6.19448 -7.15801,5.36855 -13.35248,-7.70866 -23.12595,-20.23522 -27.39326,-34.964263 1.10121,-1.23892 2.06481,-2.61544 2.4778,-4.2673 0.13795,-0.96357 0.68825,-1.65184 1.51419,-2.20245 0.41308,-0.82593 0.68826,-1.65184 1.10125,-2.47777 l -0.27523,-0.55066 c -0.55059,0.96361 -1.23892,1.92719 -1.92717,2.75312 l -1.23888,0.4131 c -0.27521,1.65184 -0.68826,3.4413 -1.37656,4.95556 -1.23888,-0.4131 -1.10121,-1.78954 -1.37653,-2.75311 -0.4131,-3.16605 -1.23887,-6.3321 -1.51418,-9.6358 -0.41311,-6.33215 0.13795,-12.66422 1.37651,-18.9963 l 2.89076,0.55058 1.51419,-1.10124 c -1.2389,-0.9636 -2.34009,-1.92713 -3.30369,-3.3037 1.7895,-5.3685 3.99197,-10.46172 6.74506,-15.41729 1.92713,0.82593 2.34012,3.02838 3.85431,4.2673 0.13795,-2.7531 -1.7895,-5.50621 -1.10125,-8.1216 10.59945,-14.316081 26.70497,-24.089533 44.60003,-26.84264 M 390.64698,28.602154 c 2.34011,0 3.71666,-2.340118 6.05679,-2.340118 0,2.753107 -0.68828,5.368542 -0.55063,8.121581 0.27533,3.44139 -0.68827,6.74509 -0.55061,10.18646 0,1.65186 0.13767,3.71664 -1.5142,4.68024 -1.7895,-3.44137 -0.82593,-8.12161 -3.99198,-10.87472 -2.06481,-1.23887 -4.68025,-1.92713 -5.23086,-4.68024 l -0.41294,1.92718 c -4.40494,0.27522 -8.94754,-0.55064 -13.35249,-0.41308 h -15.9679 c 0,12.25124 -0.68828,24.64012 -0.68828,36.89142 7.29569,0.13726 14.59137,-0.27522 22.02471,-0.27522 2.89074,0 6.46976,0 8.39693,-2.61546 1.65184,-2.47777 2.75308,-5.36848 3.16605,-8.39693 l 1.92715,0.13795 c -0.13767,9.6358 0,19.40929 0,29.04509 l -2.06481,0.13795 c -0.68828,-3.71671 -2.06482,-7.29568 -3.85433,-10.46177 -0.41293,-0.82594 -1.51419,-0.5506 -2.20246,-0.68827 -9.22285,-0.13795 -18.4457,0 -27.66855,0 0.13768,5.09323 -0.27532,10.3241 0.41294,15.41734 0.27533,6.194413 0,12.664163 1.65186,18.720993 0.96358,2.20245 2.75309,3.85431 5.09321,4.40495 3.85433,1.1012 7.70865,0.82592 11.70063,0.82592 6.46975,0.13795 12.80186,-1.37656 18.58334,-4.26729 -0.13767,1.65186 -0.27532,3.30372 -0.13767,4.95556 1.92717,-1.51419 1.37654,-4.26731 2.06482,-6.33213 3.57901,-2.47779 5.78148,-6.3321 7.70864,-10.1864 0.27533,-1.5142 2.89075,-0.13796 1.78952,1.10119 -2.06482,6.88274 -4.81791,13.7655 -6.88273,20.64817 -17.48211,0.27522 -34.82656,0 -52.30868,0.13795 -7.57099,-0.27523 -15.14199,0.13795 -22.71298,-0.13795 0,-0.55059 0.13767,-1.78946 0.13767,-2.47777 4.26728,-0.27523 8.67223,-0.55061 12.3889,-2.61539 3.57901,-2.06485 4.54259,-6.4698 4.95556,-10.3241 1.23889,-15.417303 0.68827,-30.834643 0.82593,-46.251903 -0.13767,-7.70866 0.13767,-15.55496 -0.82593,-23.2636 -0.13768,-2.0648 -1.23889,-3.99198 -2.89075,-5.23085 -3.57901,-2.477769 -8.12161,-2.753119 -12.38889,-3.303699 v -2.477794 c 9.3605,0 18.72099,0 28.0815,0.413111 2.06482,0.825929 4.12964,1.514183 6.3321,2.064843 -0.82593,-0.825934 -1.5142,-1.514234 -2.34012,-2.340163 8.25926,0.13795 16.38087,-0.13795 24.64013,0.275226 3.30371,0.13795 6.88273,0 10.5994,-0.13795 m -144.12418,0.413083 c 4.40495,-0.825913 8.94754,-0.413083 13.49014,-0.55064 12.25124,-0.413102 24.77779,0.13795 36.2031,4.817934 10.32408,4.129629 19.95989,11.012309 25.32842,21.061099 6.19445,11.15004 6.74507,24.91546 2.75309,36.89139 -4.26728,13.352493 -15.14199,24.089533 -27.94386,29.320413 -11.70062,5.09323 -24.64014,5.23088 -37.02903,4.40497 -13.21483,-1.10127 -26.56731,-0.27522 -39.91979,-0.4131 0,-0.55059 0.13772,-1.78952 0.13772,-2.34013 5.23084,-0.82592 11.28765,-0.68825 15.00432,-4.81788 3.44137,-3.57904 3.0284,-8.94754 3.44137,-13.49015 0.27532,-19.271663 0.41294,-38.543243 0,-57.814883 -0.27532,-4.12963 -0.13772,-9.3605 -4.26731,-11.83829 -3.8543,-1.927129 -8.25924,-2.477769 -12.52653,-3.028379 v -2.340117 c 4.8179,-0.413083 9.49816,-0.13795 14.31605,-0.13795 3.71668,-0.13795 7.43334,-0.413102 11.01236,0.275198 m 8.67222,5.230858 c -0.41292,0.68831 -0.68826,1.51423 -0.96357,2.34016 -0.55062,5.64382 -0.55062,11.28764 -0.82594,16.93146 0.13772,19.27163 -0.13771,38.54321 0.27534,57.814873 0.27532,1.65185 1.78951,2.89077 2.89073,3.99198 4.40496,3.02843 9.49815,4.68028 14.86669,4.68028 10.32408,0.13795 21.47409,-3.57904 27.80619,-12.11363 6.74507,-7.983945 9.08519,-18.996313 8.80988,-29.182703 0.82594,-12.93957 -5.91914,-25.46612 -15.96791,-33.45006 -10.04877,-8.80987 -23.81421,-11.975919 -36.89138,-11.01236 m 307.79526,-6.3321 c 12.11358,0 24.2272,0.13795 36.47844,0 5.91914,0.275226 11.83825,-0.137951 17.75739,0.825932 6.05681,1.238909 12.3889,2.753109 16.79385,7.157998 5.91915,5.64389 6.8827,14.72907 5.3685,22.4377 -0.68826,2.47776 -0.96359,5.36855 -3.16604,7.02038 -0.27522,2.34012 -1.37652,5.64384 -4.2673,5.50617 -0.96358,0.13795 -0.13788,1.65186 -0.27522,2.20245 -4.54262,4.40497 -10.32411,7.43335 -16.51853,8.67226 1.10121,0.82592 2.34012,0.41309 3.57898,0.41309 8.67226,10.59945 17.2068,21.336483 26.42965,31.660533 3.02843,3.57904 7.15807,6.05683 11.56297,7.43336 0,0.41307 0.13788,1.23891 0.13788,1.65185 0.68826,0.5506 1.23892,1.2389 1.92718,1.78951 -5.09322,0.13795 -10.18645,0.13795 -15.41733,0.13795 -6.88269,-0.13795 -12.5265,-5.2309 -16.51853,-10.46177 -7.70861,-10.1864 -15.55493,-20.235193 -23.12589,-30.421653 -0.41309,-0.68826 -1.10125,-0.96357 -1.78951,-0.8259 -3.7167,0 -7.29568,0 -11.01238,0.13795 0.68826,11.01238 0.68826,22.024713 1.23892,33.037073 0.13735,2.20245 1.51419,4.12963 3.57898,4.95557 2.47778,0.82592 4.95556,0.82592 7.571,1.51418 l 0.5506,2.06485 c -8.53454,0.41308 -17.20679,0.13795 -25.74133,0.13795 -4.40496,-0.13795 -8.67226,0.27522 -13.07722,-0.13795 v -1.51419 c 1.78953,-0.9636 3.99203,-0.68833 5.78149,-1.10127 3.02844,-0.55059 5.23089,-3.16603 5.23089,-6.33208 0,-4.40496 0.13788,-8.67224 0,-13.07721 l 1.78951,0.13795 c -0.68826,-0.41311 -1.23891,-0.9636 -1.78951,-1.51419 -0.27522,-4.12964 0.13788,-8.396943 -0.13788,-12.664233 l 1.92718,-0.13795 2.20245,1.78946 c 0.68827,-1.10121 1.78952,-0.27523 2.75311,-0.13795 0.68826,0 1.51419,-0.41311 2.20245,-0.13795 0,0.55059 0.13788,1.23885 0.13788,1.78951 0.5506,-0.96358 0.96359,-2.06485 1.23892,-3.02843 -0.4131,-0.27522 -0.68832,-0.4131 -1.10126,-0.55061 l -0.41309,1.37655 c -1.92713,0 -3.8543,-0.82594 -5.78149,-0.41312 l -0.68826,-1.10124 -2.61544,-0.27523 c 1.10125,-2.34011 0.27522,-4.95555 0.55065,-7.43332 -0.55065,-14.59136 0.27522,-29.18271 -0.82592,-43.91172 -0.27523,-2.47779 -2.06485,-4.404969 -4.54262,-4.817949 -2.20246,-0.41308 -4.40492,-0.68826 -6.74508,-0.68826 -0.13735,-1.37652 -0.68827,-2.340119 -1.23887,-3.166051 m 32.48646,7.43334 c -2.47778,0.68826 -4.26729,3.02838 -4.12963,5.64382 -0.27522,11.4253 0.13735,22.71302 0,34.13832 2.47779,0.13794 4.95556,-0.13795 7.43334,-0.13795 5.78149,0.82593 11.70058,-0.27522 16.79381,-2.89071 4.95555,-2.34016 8.25926,-7.29572 8.53458,-12.8019 0,-6.33207 0.41309,-12.93949 -2.61544,-18.72098 -2.20245,-3.99196 -6.74508,-5.78148 -11.14998,-6.19447 -4.95556,0 -10.04878,-0.41309 -14.86668,0.9636 m 95.80742,-6.607419 c 7.57101,-0.413083 15.14201,0.13795 22.71301,0 v 2.20245 c -4.40496,0.68832 -9.22285,1.10125 -13.07716,3.303719 -3.02843,2.20249 -3.57903,6.19447 -4.12963,9.63584 -0.27522,6.33208 -0.27522,12.66416 -0.41309,18.9963 -0.13788,2.06478 0.55065,4.4049 -0.82593,6.19443 -1.1012,1.78951 -2.75306,3.3037 -4.8179,4.26728 0,0.4131 0.13788,1.23892 0.27523,1.65186 0.27521,-0.27522 0.68826,-0.82593 0.82592,-1.10125 0.82593,0.55066 1.78952,0.82593 2.89072,0.82593 l 1.78951,2.06483 c -0.5506,5.78149 0.13789,11.56297 0,17.34446 0,5.093248 0,10.186473 0.27523,15.279633 l -1.51419,0.13795 v 1.51419 c 0.41309,-0.41311 0.96353,-0.82594 1.51419,-1.37655 0.41309,3.02838 0.68826,6.46975 3.16604,8.5346 3.57903,2.75307 8.25927,2.89071 12.66422,3.71664 1.23887,-0.13795 0.96355,1.37659 1.23887,2.20252 -8.39693,0.27522 -16.79386,0 -25.19073,0.13725 -0.55065,-0.68825 -1.10126,-1.37651 -1.65186,-1.92713 -0.68831,2.20245 -4.81794,3.3037 -4.54262,0 -0.13788,0.55062 -0.27522,1.51419 -0.41309,1.92713 -3.71669,-0.13725 -7.57101,0 -11.2877,0.41309 v -3.44137 c 1.92718,-0.96358 4.12963,-1.23885 6.05681,-2.20245 0.96359,-1.10126 1.92718,-2.34012 2.75311,-3.57901 l 2.47778,0.8259 c 0,-1.5142 -0.68831,-2.89071 -1.92718,-3.71664 0.41309,-3.1661 0.68826,-6.19448 0.96359,-9.3605 0.68827,-0.4131 1.51419,-0.68828 2.20245,-1.10127 -0.96359,-0.68827 -2.61544,-1.10121 -2.47778,-2.477775 0.55061,-6.332088 0.27522,-12.526568 0.4131,-18.858668 0.82592,-0.13794 1.78945,-0.27523 2.61539,-0.55059 -0.13788,-0.82593 -1.10121,-1.23892 -1.65186,-1.78953 0.13788,-1.10124 0.41309,-2.06482 0.55065,-3.16602 1.92713,-1.23892 3.57898,0 5.09323,1.23885 0.13788,-0.27523 0.27522,-0.96359 0.41309,-1.37653 1.51419,0.68826 1.78951,-0.41307 2.06484,-1.65185 -2.89076,1.65185 -6.74508,0.13795 -9.22286,2.61545 0.13789,-2.89077 0,-5.64384 0.13789,-8.53459 0.68826,-0.82594 1.1012,-1.92718 1.23886,-3.02838 l 1.65185,-0.27523 c 0.27523,-1.10124 0.5506,-2.20245 0.82593,-3.30369 -3.02838,-0.9636 -2.89072,-4.95557 -4.54257,-7.29568 1.1012,1.10125 2.61539,1.51419 4.12963,1.23884 -0.13787,-1.37651 -0.13787,-2.61539 -0.27522,-3.99195 l 1.10126,-1.37655 -1.51425,-0.2752 c -0.27522,-1.37654 -0.68826,-2.75306 -1.1012,-3.99198 -0.68826,-1.10125 -1.37657,-2.34012 -1.92718,-3.57904 -0.27522,0.9636 -1.23886,1.65187 -2.20245,1.65187 0.41309,-0.96354 0.96359,-1.92714 1.51419,-2.75306 -0.27523,-2.06483 -0.96359,-3.99197 -1.92718,-5.78147 0,-1.23892 1.23892,-1.927209 1.92718,-2.890779 -0.82593,-0.9636 -1.23892,-2.202447 -1.23892,-3.441366 4.12963,-0.13795 8.25926,0.275226 12.3889,0.13795 m -8.53454,93.742688 c 1.51419,-0.27522 3.71664,-0.82593 2.89072,-2.89077 -0.96359,0.82593 -1.92713,1.7895 -2.89072,2.89077 m 40.60806,-93.880357 c 14.04077,0.413073 28.21912,0 42.39753,0.13794 -0.13795,0.550638 -0.27523,1.651834 -0.27523,2.202495 -3.16609,0.68826 -6.88273,1.23887 -8.80991,4.267249 5.64382,6.88274 11.97596,13.35248 17.89512,19.95989 1.5142,1.78952 3.57897,3.30372 4.54258,5.64383 -1.37655,1.37657 -1.92719,3.992 -4.26731,3.44137 -1.37654,1.37657 -3.16605,2.2025 -5.09322,2.61544 -0.27523,0.55059 -0.68826,1.10125 -0.96354,1.65187 1.5142,-0.68829 3.02838,-1.65187 4.26723,-2.75312 3.02846,-0.82592 5.64389,0.82593 8.5346,1.23892 1.78951,0.2752 3.99198,0.2752 5.23088,1.92718 4.40492,4.68021 8.80987,9.36046 13.07716,14.04074 1.78954,1.65186 3.57904,3.57897 5.09324,5.50615 0,0.9636 -0.13795,1.9272 -0.27523,2.89074 0.68825,-0.13795 1.65185,-1.10121 2.47779,-0.55062 3.02838,2.89078 5.50615,6.46975 9.08519,8.947548 0.27522,-4.267308 0.27522,-8.534558 -0.13795,-12.801858 -0.13795,-1.23889 0.13795,-2.3401 0.4131,-3.57902 -1.10125,-9.36052 -0.55066,-18.99632 -1.10125,-28.35682 -0.13795,-2.34012 -0.13795,-4.68024 0,-7.02037 l 2.61544,0.55061 v -0.4131 c -0.82593,-0.13795 -1.65186,-0.27522 -2.47779,-0.41308 -1.51419,-3.57899 -0.68826,-7.84629 -2.89075,-11.28766 -1.10121,-1.7895 -3.30373,-2.34011 -5.23086,-3.028379 -2.75309,-0.82593 -5.64382,-1.51423 -8.53458,-2.06482 -0.9636,-0.13795 -0.68825,-1.651857 -1.10124,-2.202467 3.57901,-0.55064 7.29572,0 11.01236,0 h 16.38087 c 3.57904,-0.275207 7.15805,-0.275207 10.59937,0 0.68833,0.96359 -0.55058,2.064797 -1.1012,2.753057 -2.34012,1.23891 -5.23087,1.23891 -7.43333,2.753109 -1.65185,1.65185 -2.75311,3.71668 -2.89078,6.05681 -0.82593,4.68023 -0.27522,9.49812 -0.68825,14.17841 -0.41311,4.4049 0.41307,8.94754 -0.13795,13.35244 -1.1012,-0.27523 -2.20245,-0.96353 -3.16603,-1.65186 -0.13795,0.55066 -0.27523,1.65186 -0.4131,2.34016 0.82593,-0.2752 1.65186,0.13795 1.92713,0.96356 v 0.13794 l -2.20245,-0.68825 v 2.7531 l 1.51419,-0.55065 c 0.27523,1.23892 0.68826,2.34016 1.23892,3.30371 0.55059,-1.23887 1.78946,-1.23887 3.02838,-1.37654 -0.96361,-1.10124 -1.37655,-2.47777 -1.23892,-3.85428 0.82593,1.23884 2.61544,2.20244 1.92718,3.99195 -0.27523,1.10125 -0.55061,2.34013 -0.9636,3.44137 -0.68827,-0.82593 -1.51419,-1.51419 -2.61544,-2.06484 0.27523,1.78952 0.9636,3.44137 2.06484,4.95555 -1.23891,0.13795 -2.06484,1.23892 -3.02837,2.06485 0.96353,0.41311 1.92713,0.82593 2.75303,1.51419 -0.8259,0.82593 -1.7895,1.65186 -1.7895,2.89071 0,2.34019 -0.4131,4.54264 -0.4131,6.88276 0,2.3401 1.10127,4.542613 1.23887,6.882743 0.13794,2.3401 0,4.40491 0,6.6074 l -1.65186,-0.13795 0.4131,1.92718 -1.37652,1.23884 2.61539,1.92719 c 0,4.95556 0.13795,9.91114 0.41309,14.86669 -1.37653,0 -3.16605,1.65184 -4.2673,0.13795 -6.19441,-7.0204 -12.80183,-13.6278 -18.99631,-20.64816 1.10125,-0.82593 -0.27522,-3.44137 -1.10125,-1.37656 -9.91111,-10.461753 -19.54691,-21.198793 -29.32035,-31.798163 -0.68829,-0.82594 -1.37655,-1.65187 -1.9272,-2.4778 -6.46976,-6.19448 -12.25122,-13.07714 -18.44565,-19.54696 0.27522,7.15808 -0.13795,14.45375 0.27522,21.61177 -1.37653,-0.4131 -3.44136,0.13795 -4.26729,-1.37652 l 0.27522,1.10124 c -1.23887,0.13726 -2.47779,0.41309 -3.71664,0.68827 0,-7.02041 0.2752,-13.90311 0.13726,-20.92349 -0.13726,-3.16605 0.96357,-6.46975 -0.41311,-9.49812 -4.81789,-5.91917 -11.83829,-10.874719 -19.82223,-10.874719 0.13787,-1.376594 0.13787,-2.753107 1.10125,-3.028427 m -582.69116,0.55064 c 1.37655,-0.13795 2.75309,-0.13795 4.12965,-0.13795 l -1.23889,2.202447 -3.02841,-0.27523 0.13772,-1.789501 m 2.75309,2.202441 c 1.23887,-2.34011 3.99198,-2.47778 6.3321,-2.615431 h 37.44199 v 2.202491 c -4.40495,0.68826 -9.22283,0.82593 -13.07717,3.441329 -3.57901,3.16609 -2.89073,8.53459 -3.44137,12.80186 0.13772,9.36053 -0.55061,18.58334 -0.41291,27.94385 0,5.91916 -0.13772,11.70065 0,17.61979 0.41291,6.056758 0.55061,12.251243 0.27532,18.445673 -0.13772,1.7895 1.78951,2.89077 3.16605,3.85436 6.74506,3.85431 14.72903,3.71664 22.30002,3.3037 5.09321,-0.55064 10.46173,-1.5142 14.59136,-4.95557 3.57901,-3.85435 6.46976,-8.25926 8.53457,-13.21481 0.41299,-1.238925 1.78951,-0.275235 2.61544,0 -1.78951,3.71664 -2.4778,7.84627 -3.99198,11.70063 -1.2389,3.85431 -2.61544,7.57094 -3.57902,11.4253 -0.27531,1.1012 -1.65184,1.1012 -2.61544,0.9636 -4.68024,-0.27522 -9.49815,0.68826 -14.17839,-0.27522 -9.63582,0.68826 -19.54694,0.13795 -29.32041,0.27522 -9.77344,0.41311 -19.40926,-0.55066 -29.18273,0.27523 -0.13772,-0.82593 -0.27532,-1.65186 -0.27532,-2.4778 5.23086,-0.41308 11.70063,-1.10119 14.45371,-6.33207 1.78951,-5.64382 1.37654,-11.70062 2.06482,-17.48212 0.13772,-12.526583 0,-24.915473 0,-37.442053 -0.27534,-7.43332 0,-15.00427 -0.9636,-22.29999 -0.68825,-4.81791 -6.46974,-6.745019 -10.73704,-7.158009 m 264.70946,-2.477787 c 14.31605,0.13795 28.63212,0 42.81055,0.13795 v 2.064777 c -3.3037,0.68833 -7.0204,1.37658 -8.94758,4.542609 7.70867,7.98394 14.72907,16.79388 22.57534,24.77782 10.46172,11.42531 21.19876,22.85061 31.7982,34.13829 1.92713,1.78948 3.44131,3.991983 5.64382,5.643853 0.5506,-6.745103 -0.68826,-13.490173 -0.41309,-20.235253 1.23891,-0.55059 0.55065,-1.51419 -0.13787,-2.06478 -0.27523,-1.37659 0,-2.75311 0.68831,-3.85436 0,-0.96353 -0.96359,-1.65186 -0.82592,-2.61539 -0.4131,-8.80991 0.13735,-17.75745 -0.9636,-26.56732 -0.27522,-3.85436 -0.68826,-8.94752 -4.68028,-10.59937 -3.85431,-1.376579 -7.84627,-2.340179 -11.83825,-3.166099 v -2.064777 c 9.91112,-0.13795 19.9599,0 29.87103,-0.13795 3.8543,-0.275226 7.84627,0 11.70057,0 v 2.202447 c -3.99197,0.68833 -8.25926,1.23892 -11.9759,3.166099 -1.92718,0.96352 -2.47778,3.16605 -3.30371,4.95555 -1.23892,11.56298 -0.13787,23.26356 -0.82593,34.82653 -0.13787,13.76547 0,27.668593 0,41.434013 0,3.57901 0.4131,7.15805 0.27523,10.8747 -1.23892,0.27522 -2.34017,0.4131 -3.44137,0.68826 -10.87471,-11.28764 -21.33643,-23.12593 -32.07347,-34.551253 -12.93955,-13.9031 -25.60372,-28.08152 -38.68092,-41.84694 0,17.7574 0.27532,35.51484 0.55061,53.272263 0.68827,4.95555 -0.27533,10.73704 3.16607,14.72899 4.26729,2.06486 8.80986,3.30373 13.49015,3.57904 0,0.5506 0.13734,1.78952 0.13734,2.4778 h -42.25989 c 0,-0.55061 0.13767,-1.78953 0.13767,-2.4778 3.85432,-0.4131 7.57099,-1.23886 11.15,-2.61543 2.34013,-0.68826 3.16605,-3.16605 3.85433,-5.23083 1.92716,-6.88273 1.10124,-14.04077 1.92716,-21.061163 0.27533,-2.20248 0.27533,-4.2673 0.27533,-6.46975 -0.13768,-12.25124 0.55062,-24.50248 0.27532,-36.75375 -0.13767,-2.61539 0.27533,-5.23086 0.13767,-7.70863 -3.44135,-3.57904 -7.02037,-7.43334 -11.70062,-9.360529 -2.61543,-0.96357 -5.50617,-1.51418 -8.25926,-1.92717 v -2.340116 m 256.03721,0.13795 c 4.8179,0.137941 9.63579,-0.275226 14.31607,0.275217 -0.13787,1.651859 -0.41309,3.166049 -0.68826,4.817888 -1.23891,0.41311 -2.47778,-0.550589 -3.57903,-0.825929 -3.16604,-1.23889 -6.60741,-1.23889 -9.91112,-1.92718 -0.13788,-0.550587 -0.13788,-1.789508 -0.13788,-2.340089 m 8.67226,12.388878 c 1.1012,-0.27523 1.37653,0 1.1012,1.10125 -1.23886,0.4131 -1.51419,0 -1.1012,-1.10125 m 4.26725,0.9636 c 1.10125,-0.27523 1.37657,0 1.10125,1.23885 -1.10125,0.27522 -1.5142,0 -1.10125,-1.23885 m -0.68827,2.61544 2.61544,-0.68827 c 0.13789,0.82594 0.41309,1.65184 0.5506,2.6154 l -2.89072,-0.41311 c 0,-0.41308 -0.13787,-1.23892 -0.27521,-1.51418 m 4.40495,1.51418 c 2.0648,0.27523 1.23886,2.61544 1.23886,3.99199 -0.68826,-1.23888 -1.23886,-2.61547 -1.23886,-3.99199 m -1.23891,10.32407 c 0.96359,-0.27523 1.23891,0 0.96359,0.96359 -0.96359,0.27521 -1.23887,0 -0.96359,-0.96359 m 96.90874,8.25924 c 0.8259,-1.23884 1.37651,-3.02837 3.02838,-3.44129 1.51423,0.96354 2.75308,2.20245 3.71668,3.57897 -0.9636,0.4131 -1.92718,0.82593 -3.02838,1.10125 -1.23891,-0.27523 -2.47779,-0.68827 -3.71668,-1.23893 m -34.13832,8.53461 c 2.34017,-0.96358 5.09323,-0.82593 7.29572,0.4131 0.27523,8.6722 0,17.34444 0.41309,26.016668 -0.27521,5.506155 0.27522,11.012375 1.65185,16.243205 0.55061,2.20249 2.61544,3.16609 4.54262,3.71668 3.579,1.23887 7.29568,1.92718 11.01232,2.34012 -0.27521,0.82594 0,2.75311 -1.37652,2.61544 -13.76543,-0.27521 -27.66857,0 -41.43399,-0.13795 0,-0.55061 0.27522,-1.78953 0.27522,-2.34012 4.68024,-1.23892 10.5994,-0.68826 14.04077,-4.81788 3.3037,-6.05684 2.47776,-13.07717 2.89071,-19.6846 0.41308,-8.121663 0.82593,-16.243263 0.68826,-24.364853 m -78.7383,48.729673 c 2.20246,-0.41309 4.40491,-0.68827 6.74507,-0.96359 v 3.44137 c -2.47778,-0.13795 -5.36854,0 -6.74507,-2.47778 m 207.99582,6.88273 v 0 m -1.51419,3.57899 c 0,-1.65186 1.37651,-1.65186 2.75306,-1.65186 0,0.55066 0.27522,1.51424 0.27522,2.06485 z"
       id="path4"
       style="stroke-width:1.37654" fill="#f7f7f7"/>
  </g>
</svg>
